<?xml version="1.0" encoding="UTF-8"?>
<svg version="1.1" xmlns="http://www.w3.org/2000/svg" width="1024" height="1024">
<path d="M0 0 C1.65738364 -0.00258807 3.31476666 -0.00560245 4.97214884 -0.0090034 C9.503339 -0.01702533 14.03451329 -0.01886028 18.56570971 -0.01960087 C23.46245088 -0.02145994 28.35918396 -0.02901169 33.25592041 -0.03573608 C43.95501954 -0.04928744 54.6541149 -0.05533961 65.35322118 -0.05974674 C72.04465962 -0.06251554 78.73609663 -0.06675414 85.4275341 -0.07125092 C103.98377549 -0.08344122 122.54001573 -0.09373983 141.09626102 -0.09712601 C142.28274902 -0.09734557 143.46923702 -0.09756514 144.69167921 -0.09779136 C145.88088715 -0.09800964 147.07009509 -0.09822791 148.29533964 -0.09845281 C150.70482258 -0.09889626 153.11430552 -0.09934282 155.52378845 -0.09979248 C156.71895623 -0.10001391 157.91412401 -0.10023534 159.145509 -0.10046348 C178.48157613 -0.10440567 197.81760544 -0.12184306 217.15365798 -0.145152 C237.04461154 -0.16893455 256.93554619 -0.18133105 276.82651418 -0.18249393 C287.97864336 -0.18340701 299.1307233 -0.18906598 310.28283882 -0.20731354 C319.78556403 -0.22280825 329.2882248 -0.22778039 338.79096026 -0.21957543 C343.62861785 -0.21570132 348.46614604 -0.21643733 353.30378723 -0.23063278 C373.59677083 -0.28678369 393.4044736 0.04829472 413.51475525 3.14044189 C414.24184193 3.2500152 414.96892861 3.3595885 415.71804821 3.4724822 C419.35764169 4.02758514 422.96820098 4.66278718 426.57725525 5.39044189 C427.63485046 5.60023682 428.69244568 5.81003174 429.78208923 6.02618408 C484.63215158 17.29123356 535.73252721 42.08800253 578.51475525 78.14044189 C579.5665533 79.00537227 580.61865037 79.8699391 581.67100525 80.73419189 C594.61307476 91.4740768 607.11241682 103.25338174 617.46788025 116.53887939 C619.35043399 118.93159083 621.32028753 121.22030933 623.33067322 123.50567627 C665.41322468 171.7455537 689.19415889 236.19444017 696.51475525 299.14044189 C696.59773668 299.8500711 696.68071811 300.5597003 696.76621413 301.29083341 C697.64778873 309.73196791 697.66052788 318.14981438 697.65519714 326.62568665 C697.65778521 328.28307029 697.66079959 329.94045331 697.66420054 331.59783548 C697.67222247 336.12902565 697.67405742 340.66019993 697.67479801 345.19139636 C697.67665708 350.08813752 697.68420883 354.98487061 697.69093323 359.88160706 C697.70448458 370.58070618 697.71053676 381.27980155 697.71494389 391.97890782 C697.71771269 398.67034627 697.72195128 405.36178328 697.72644806 412.05322075 C697.73863837 430.60946213 697.74893697 449.16570237 697.75232315 467.72194767 C697.75254272 468.90843567 697.75276228 470.09492367 697.7529885 471.31736585 C697.75320678 472.5065738 697.75342506 473.69578174 697.75364995 474.92102629 C697.7540934 477.33050923 697.75453997 479.73999216 697.75498962 482.1494751 C697.75521105 483.34464288 697.75543248 484.53981066 697.75566062 485.77119564 C697.75960281 505.10726277 697.77704021 524.44329208 697.80034915 543.77934463 C697.8241317 563.67029819 697.83652819 583.56123283 697.83769107 603.45220083 C697.83860415 614.60433001 697.84426312 625.75640995 697.86251068 636.90852547 C697.87800539 646.41125068 697.88297754 655.91391144 697.87477258 665.41664691 C697.87089846 670.2543045 697.87163447 675.09183269 697.88582993 679.92947388 C697.94198083 700.22245748 697.60690242 720.03016025 694.51475525 740.14044189 C694.40518195 740.86752857 694.29560864 741.59461525 694.18271494 742.34373486 C693.62761201 745.98332834 692.99240996 749.59388763 692.26475525 753.20294189 C692.05496033 754.26053711 691.84516541 755.31813232 691.62901306 756.40777588 C680.36396358 811.25783823 655.56719461 862.35821385 619.51475525 905.14044189 C618.64982488 906.19223994 617.78525805 907.24433702 616.92100525 908.29669189 C606.18112034 921.2387614 594.40181541 933.73810346 581.11631775 944.09356689 C578.72360631 945.97612064 576.43488781 947.94597417 574.14952087 949.95635986 C525.90964344 992.03891133 461.46075698 1015.81984554 398.51475525 1023.14044189 C397.45031145 1023.26491404 397.45031145 1023.26491404 396.36436373 1023.39190078 C387.92322923 1024.27347537 379.50538276 1024.28621453 371.0295105 1024.28088379 C369.37212686 1024.28347185 367.71474384 1024.28648623 366.05736166 1024.28988719 C361.5261715 1024.29790912 356.99499721 1024.29974407 352.46380079 1024.30048466 C347.56705962 1024.30234373 342.67032654 1024.30989548 337.77359009 1024.31661987 C327.07449096 1024.33017123 316.3753956 1024.3362234 305.67628932 1024.34063053 C298.98485088 1024.34339933 292.29341387 1024.34763792 285.60197639 1024.3521347 C267.04573501 1024.36432501 248.48949477 1024.37462362 229.93324947 1024.3780098 C228.74676147 1024.37822936 227.56027347 1024.37844893 226.33783129 1024.37867515 C224.55401938 1024.37900256 224.55401938 1024.37900256 222.73417085 1024.3793366 C220.32468792 1024.37978005 217.91520498 1024.38022661 215.50572205 1024.38067627 C214.31055427 1024.3808977 213.11538649 1024.38111913 211.8840015 1024.38134727 C192.54793437 1024.38528946 173.21190506 1024.40272685 153.87585252 1024.42603579 C133.98489896 1024.44981834 114.09396431 1024.46221484 94.20299631 1024.46337771 C83.05086714 1024.4642908 71.8987872 1024.46994977 60.74667168 1024.48819733 C51.24394646 1024.50369204 41.7412857 1024.50866418 32.23855024 1024.50045922 C27.40089265 1024.49658511 22.56336446 1024.49732111 17.72572327 1024.51151657 C-2.56726034 1024.56766747 -22.3749631 1024.23258907 -42.48524475 1021.14044189 C-43.21233143 1021.03086859 -43.93941811 1020.92129529 -44.68853772 1020.80840158 C-48.3281312 1020.25329865 -51.93869048 1019.61809661 -55.54774475 1018.89044189 C-56.60533997 1018.68064697 -57.66293518 1018.47085205 -58.75257874 1018.25469971 C-113.60264108 1006.98965023 -164.70301671 982.19288126 -207.48524475 946.14044189 C-208.5370428 945.27551152 -209.58913988 944.41094469 -210.64149475 943.54669189 C-223.58356426 932.80680699 -236.08290632 921.02750205 -246.43836975 907.74200439 C-248.32092349 905.34929296 -250.29077703 903.06057446 -252.30116272 900.77520752 C-294.38371418 852.53533009 -318.16464839 788.08644362 -325.48524475 725.14044189 C-325.56822618 724.43081269 -325.65120761 723.72118349 -325.73670363 722.99005038 C-326.61827823 714.54891588 -326.63101739 706.1310694 -326.62568665 697.65519714 C-326.62827471 695.9978135 -326.63128909 694.34043048 -326.63469005 692.68304831 C-326.64271197 688.15185814 -326.64454692 683.62068386 -326.64528751 679.08948743 C-326.64714658 674.19274627 -326.65469833 669.29601318 -326.66142273 664.39927673 C-326.67497409 653.70017761 -326.68102626 643.00108224 -326.68543339 632.30197597 C-326.68820219 625.61053752 -326.69244078 618.91910051 -326.69693756 612.22766304 C-326.70912787 593.67142166 -326.71942647 575.11518142 -326.72281265 556.55893612 C-326.72303222 555.37244812 -326.72325178 554.18596012 -326.723478 552.96351794 C-326.72369628 551.77430999 -326.72391456 550.58510205 -326.72413945 549.3598575 C-326.72458291 546.95037456 -326.72502947 544.54089163 -326.72547913 542.13140869 C-326.72570056 540.93624091 -326.72592199 539.74107313 -326.72615013 538.50968815 C-326.73009231 519.17362102 -326.74752971 499.83759171 -326.77083865 480.50153916 C-326.7946212 460.6105856 -326.8070177 440.71965096 -326.80818057 420.82868296 C-326.80909365 409.67655378 -326.81475262 398.52447384 -326.83300018 387.37235832 C-326.8484949 377.86963311 -326.85346704 368.36697235 -326.84526208 358.86423688 C-326.84138796 354.02657929 -326.84212397 349.1890511 -326.85631943 344.35140991 C-326.91247033 324.05842631 -326.57739193 304.25072354 -323.48524475 284.14044189 C-323.37567145 283.41335522 -323.26609815 282.68626854 -323.15320444 281.93714893 C-322.59810151 278.29755545 -321.96289946 274.68699616 -321.23524475 271.07794189 C-321.02544983 270.02034668 -320.81565491 268.96275146 -320.59950256 267.87310791 C-309.33445308 213.02304556 -284.53768411 161.92266994 -248.48524475 119.14044189 C-247.62031438 118.08864385 -246.75574755 117.03654677 -245.89149475 115.98419189 C-235.15160985 103.04212239 -223.37230491 90.54278033 -210.08680725 80.18731689 C-207.69409581 78.30476315 -205.40537731 76.33490962 -203.12001038 74.32452393 C-154.88013294 32.24197246 -90.43124648 8.46103825 -27.48524475 1.14044189 C-26.77561555 1.05746046 -26.06598635 0.97447903 -25.33485323 0.88898301 C-16.89371874 0.00740841 -8.47587226 -0.00533074 0 0 Z " fill="#009EE2" transform="translate(326.48524475097656,-0.14044189453125)"/>
<path d="M0 0 C0.86307744 -0.00367669 1.72615488 -0.00735338 2.61538619 -0.01114148 C5.49519911 -0.02211688 8.37497587 -0.02601173 11.25480652 -0.02983093 C13.32513034 -0.03610042 15.39545304 -0.04274765 17.46577454 -0.04974365 C24.25636519 -0.07073574 31.04695594 -0.08114429 37.83757019 -0.09111023 C40.18206481 -0.09516016 42.52655931 -0.09927715 44.8710537 -0.10346031 C55.89257109 -0.12250451 66.91408183 -0.1367349 77.9356125 -0.14507228 C90.6225849 -0.15482989 103.30938215 -0.18111419 115.99629289 -0.22157317 C125.82423633 -0.25182972 135.65212985 -0.26655033 145.48011893 -0.26985329 C151.33919954 -0.27219365 157.19809289 -0.28102083 163.05712318 -0.30631447 C168.57872148 -0.32976638 174.10001149 -0.33376021 179.62164688 -0.32355309 C181.63463688 -0.32306169 183.64764296 -0.32926337 185.6605854 -0.34310913 C215.78164905 -0.53849349 241.63110697 8.36293054 263.74772644 29.60029602 C279.13557462 45.61132809 290.31283435 67.48174731 290.38053894 89.95967102 C290.33329682 92.0225769 290.27649842 94.08541279 290.19303894 96.14717102 C290.85303894 96.14717102 291.51303894 96.14717102 292.19303894 96.14717102 C292.33046246 133.9062946 292.43614274 171.66538042 292.49943092 209.42470361 C292.50693489 213.88557857 292.51470085 218.34645304 292.52262878 222.80732727 C292.52420265 223.69538275 292.52577651 224.58343822 292.52739806 225.49840447 C292.55348453 239.86546271 292.60078013 254.23237645 292.65595572 268.59934905 C292.71212467 283.34831983 292.74540427 298.0972151 292.75756991 312.84628844 C292.76579029 321.9425753 292.79172479 331.03845371 292.84053774 340.1346148 C292.87232746 346.3777057 292.88182287 352.62058637 292.8740472 358.86375228 C292.8702155 362.46239231 292.87596273 366.06032014 292.90827179 369.65883255 C292.9431275 373.5697755 292.93090497 377.47980362 292.91456604 381.3908844 C292.93204309 382.51543289 292.94952014 383.63998139 292.96752679 384.79860711 C292.85681446 394.64018467 289.46509766 402.83712922 282.81803894 410.14717102 C275.66452605 416.65036456 268.55051998 418.20756096 259.19303894 418.14717102 C259.22445984 419.97707581 259.22445984 419.97707581 259.2565155 421.84394836 C259.32941981 426.40990768 259.37502064 430.9758165 259.4127655 435.54219055 C259.43276681 437.51102884 259.45997697 439.47980858 259.49479675 441.44844055 C259.54382425 444.2934776 259.56612276 447.13772317 259.58366394 449.98310852 C259.60430908 450.8501944 259.62495422 451.71728027 259.64622498 452.61064148 C259.64904845 460.46186995 257.35310084 466.84354694 253.06803894 473.39717102 C244.5795135 481.51663014 235.62075707 484.45533363 224.11491394 484.48310852 C223.14829834 484.48976532 222.18168274 484.49642212 221.18577576 484.50328064 C219.14508457 484.51337941 217.10436055 484.51809852 215.06364441 484.51777649 C211.96688854 484.52213743 208.87157314 484.5584533 205.77507019 484.59638977 C203.7841896 484.60226122 201.7933023 484.60622841 199.80241394 484.60810852 C198.88852905 484.62247955 197.97464417 484.63685059 197.0330658 484.6516571 C187.74661204 484.58678295 179.83320445 481.67726054 173.01725769 475.27607727 C158.9129145 458.81597655 164.19303894 439.96577939 164.19303894 418.14717102 C121.62303894 418.14717102 79.05303894 418.14717102 35.19303894 418.14717102 C35.19303894 431.01717102 35.19303894 443.88717102 35.19303894 457.14717102 C30.52719391 468.81178359 26.62710394 476.25633113 15.32975769 481.79951477 C6.81242815 485.2476824 -1.95153425 484.82402773 -11.01667786 484.68916321 C-13.99887272 484.64710881 -16.9788145 484.64812564 -19.96125793 484.65498352 C-21.88249738 484.64449441 -23.80372536 484.63155781 -25.72492981 484.61592102 C-26.60327988 484.6157196 -27.48162994 484.61551819 -28.38659668 484.61531067 C-38.00713814 484.43339673 -46.49109109 481.51417816 -53.80696106 475.14717102 C-60.13821327 467.47661546 -62.11271693 461.03991608 -62.00227356 451.25263977 C-61.99944366 450.30528458 -61.99661377 449.35792938 -61.99369812 448.38186646 C-61.98253293 445.36600436 -61.95743495 442.35044286 -61.93196106 439.33467102 C-61.92192653 437.28584719 -61.91280151 435.2370187 -61.90461731 433.18818665 C-61.88260555 428.17439954 -61.84810077 423.16083619 -61.80696106 418.14717102 C-62.53358948 418.10543762 -63.2602179 418.06370422 -64.00886536 418.02070618 C-73.2363956 417.36209034 -80.61785516 414.87167283 -87.18196106 408.02217102 C-93.65730811 399.18732929 -95.54728202 390.04360269 -95.43515015 379.29768372 C-95.44224453 378.06014202 -95.44933892 376.82260032 -95.45664829 375.54755735 C-95.47110395 372.1466968 -95.46342679 368.74725001 -95.44592535 365.34649563 C-95.43246926 361.6652711 -95.44801831 357.98414743 -95.45974731 354.30293274 C-95.47807163 347.10279554 -95.4696447 339.90293079 -95.45165909 332.70280224 C-95.43759217 326.8432102 -95.43374907 320.98369177 -95.43710136 315.12408447 C-95.43757881 314.28777499 -95.43805625 313.45146551 -95.43854816 312.58981332 C-95.43957458 310.89037834 -95.44062995 309.19094337 -95.44171392 307.49150842 C-95.45027157 292.48019073 -95.4336412 277.46900376 -95.40388489 262.4577179 C-95.37509117 247.93162025 -95.36794556 233.40571123 -95.38337708 218.8795929 C-95.40019314 203.02867133 -95.40411538 187.17783924 -95.38666672 171.32691526 C-95.38482254 169.63153808 -95.38298781 167.93616089 -95.38116264 166.24078369 C-95.38025055 165.40684827 -95.37933846 164.57291284 -95.37839874 163.71370664 C-95.37282364 157.87397212 -95.37607245 152.03428166 -95.3827076 146.19454956 C-95.39049394 139.05876709 -95.38350103 131.92316929 -95.35853256 124.78742367 C-95.34615416 121.15549284 -95.33974599 117.52384768 -95.35107422 113.89190674 C-95.40722757 93.88874538 -94.96862638 74.36842183 -85.80696106 56.14717102 C-85.03545715 54.55002258 -85.03545715 54.55002258 -84.24836731 52.92060852 C-80.30992715 45.15287666 -75.64230284 38.59777125 -69.80696106 32.14717102 C-69.03481262 31.29252258 -68.26266418 30.43787415 -67.46711731 29.55732727 C-49.96442032 11.1468729 -25.43365317 -0.00588995 0 0 Z " fill="#FEFEFE" transform="translate(412.8069610595703,269.8528289794922)"/>
<path d="M0 0 C106.59 0 213.18 0 323 0 C323 63.69 323 127.38 323 193 C216.41 193 109.82 193 0 193 C0 129.31 0 65.62 0 0 Z " fill="#019EE2" transform="translate(350,366)"/>
<path d="M0 0 C0.95018005 0.00359528 1.90036011 0.00719055 2.8793335 0.01089478 C4.37184883 0.01067574 4.37184883 0.01067574 5.89451599 0.01045227 C9.20059348 0.01115186 12.5066154 0.01894637 15.81268311 0.02676392 C18.09811879 0.02862793 20.38355487 0.03005191 22.66899109 0.03105164 C28.69751073 0.03487809 34.72600644 0.04470947 40.7545166 0.05575562 C46.90085527 0.06596699 53.04719778 0.07054867 59.19354248 0.07559204 C71.26321447 0.08633162 83.33286868 0.10340957 95.40252686 0.12442017 C97.40385832 4.19589787 99.39745682 8.27103476 101.38397217 12.34976196 C102.06089243 13.7368644 102.73991722 15.12294185 103.42108154 16.50796509 C104.39961493 18.49855304 105.37052936 20.49270015 106.34002686 22.48770142 C106.64625977 23.10655716 106.95249268 23.7254129 107.26800537 24.36302185 C108.61976034 27.16199292 109.40252686 28.97069867 109.40252686 32.12442017 C66.83252686 32.12442017 24.26252686 32.12442017 -19.59747314 32.12442017 C-16.21745676 21.98437103 -16.21745676 21.98437103 -14.37091064 17.46817017 C-13.97903564 16.50910767 -13.58716064 15.55004517 -13.18341064 14.56192017 C-12.58399658 13.10785767 -12.58399658 13.10785767 -11.97247314 11.62442017 C-11.56512939 10.62410767 -11.15778564 9.62379517 -10.73809814 8.59317017 C-7.21683176 0.01154084 -7.21683176 0.01154084 0 0 Z " fill="#019EE2" transform="translate(467.59747314453125,301.8755798339844)"/>
<path d="M0 0 C1.50208511 -0.01913956 1.50208511 -0.01913956 3.03451538 -0.03866577 C4.11061066 -0.04089142 5.18670593 -0.04311707 6.29541016 -0.04541016 C7.40751862 -0.05206696 8.51962708 -0.05872375 9.66543579 -0.06558228 C12.01733751 -0.07570459 14.36926793 -0.08039943 16.72119141 -0.08007812 C20.31412242 -0.08444791 23.90582173 -0.12076449 27.49853516 -0.15869141 C29.78498929 -0.16456032 32.07144926 -0.16852921 34.35791016 -0.17041016 C35.42995697 -0.18478119 36.50200378 -0.19915222 37.60653687 -0.21395874 C43.52941502 -0.17779202 47.41430814 0.07523199 51.95947266 4.29052734 C55.20239706 8.27423869 55.4140058 12.00617785 55.39306641 16.97021484 C55.39830826 17.70120392 55.40355011 18.43219299 55.40895081 19.18533325 C55.41535284 20.72673274 55.41405758 22.26818119 55.40551758 23.80957031 C55.39702253 26.15177747 55.4257649 28.49153045 55.45751953 30.83349609 C55.45913233 32.33740162 55.45855251 33.84131142 55.45556641 35.34521484 C55.46680038 36.03710907 55.47803436 36.7290033 55.48960876 37.44186401 C55.41226388 42.91678549 54.13605715 45.96619036 50.95947266 50.29052734 C45.74602379 54.19473792 39.93646617 53.77437144 33.68212891 53.79443359 C32.59741806 53.80441879 31.51270721 53.81440399 30.39512634 53.82469177 C28.10647383 53.83984514 25.81775536 53.84691843 23.52905273 53.84643555 C20.03664667 53.85299976 16.54707969 53.90752254 13.05517578 53.96435547 C10.82666984 53.97315786 8.59815045 53.97911186 6.36962891 53.98193359 C5.33089127 54.00349014 4.29215363 54.02504669 3.22193909 54.04725647 C-2.89820285 53.98968255 -6.35439064 53.16929739 -10.8127594 48.87168884 C-13.74316239 45.09781577 -13.23572301 40.6183491 -13.27880859 36.07958984 C-13.28688034 35.27443939 -13.29495209 34.46928894 -13.30326843 33.63973999 C-13.31709035 31.93676903 -13.32782096 30.23377058 -13.33569336 28.53076172 C-13.3529187 25.9319194 -13.39682122 23.33434565 -13.44091797 20.73583984 C-13.45104448 19.07959918 -13.45956072 17.42334772 -13.46630859 15.76708984 C-13.48381668 14.9929776 -13.50132477 14.21886536 -13.5193634 13.42129517 C-13.50471007 9.76139277 -13.18928959 7.53375577 -11.26391602 4.38574219 C-7.6585532 0.98822119 -4.92816146 0.04274066 0 0 Z " fill="#009EE2" transform="translate(362.04052734375,600.70947265625)"/>
<path d="M0 0 C1.63630371 -0.00430527 1.63630371 -0.00430527 3.30566406 -0.00869751 C5.60872925 -0.01073617 7.91181183 -0.00522023 10.21484375 0.00732422 C13.73737352 0.02337995 17.25875586 0.00746802 20.78125 -0.01171875 C23.02083586 -0.00973628 25.26042101 -0.00589254 27.5 0 C29.0782959 -0.00910904 29.0782959 -0.00910904 30.68847656 -0.0184021 C37.51221545 0.04714097 40.99273975 0.77775431 46.02709961 5.56274414 C48.28776147 9.28353024 48.34384128 12.5396626 48.31640625 16.76953125 C48.32260483 17.56948013 48.32880341 18.36942902 48.33518982 19.19361877 C48.34227316 20.88045031 48.33913988 22.56735197 48.32641602 24.25415039 C48.31255869 26.82504946 48.34662629 29.39229918 48.38476562 31.96289062 C48.38571703 33.60677172 48.38385684 35.25065734 48.37890625 36.89453125 C48.39216446 37.6572081 48.40542267 38.41988495 48.41908264 39.20567322 C48.32011197 44.92430101 46.8375685 47.39528085 42.75 51.3984375 C39.52791563 53.54649375 38.63143865 53.6561511 34.91479492 53.68896484 C33.93335007 53.70172455 32.95190521 53.71448425 31.9407196 53.72763062 C30.35164543 53.73096909 30.35164543 53.73096909 28.73046875 53.734375 C27.63914139 53.7410318 26.54781403 53.7476886 25.42341614 53.75454712 C23.11261685 53.76467872 20.80178827 53.76936398 18.4909668 53.76904297 C14.96158323 53.77340772 11.43345842 53.80970033 7.90429688 53.84765625 C5.65885844 53.853526 3.41341407 53.85749433 1.16796875 53.859375 C0.11465866 53.87374603 -0.93865143 53.88811707 -2.02388 53.90292358 C-7.91816607 53.86632148 -11.72921901 53.58023607 -16.25 49.3984375 C-20.03468048 44.93510289 -20.84780407 41.28972079 -20.78125 35.5859375 C-20.7850769 34.8539917 -20.78890381 34.1220459 -20.79284668 33.36791992 C-20.7955553 31.82827368 -20.78826781 30.28858059 -20.77148438 28.74902344 C-20.75005584 26.40454637 -20.77131779 24.0631328 -20.796875 21.71875 C-20.79423153 20.21613913 -20.78910615 18.71353016 -20.78125 17.2109375 C-20.78934692 16.51701904 -20.79744385 15.82310059 -20.80578613 15.1081543 C-20.71003762 10.08946391 -19.47176533 7.21375856 -16.25 3.3984375 C-11.62463935 -0.78226181 -5.88946409 -0.03399069 0 0 Z " fill="#009EE2" transform="translate(626.25,600.6015625)"/>
<path d="M0 0 C22 0 22 0 28 4 C31.76228349 8.47692948 32.50095901 11.58744286 32.50170898 17.37890625 C32.50711197 18.09190887 32.51251495 18.8049115 32.51808167 19.53952026 C32.53052181 21.88094441 32.5141109 24.22112743 32.49609375 26.5625 C32.49624885 28.19864974 32.49773964 29.83479985 32.50050354 31.47094727 C32.50188541 34.89388342 32.48936534 38.31639948 32.46655273 41.73925781 C32.43816851 46.11734687 32.44090815 50.49473835 32.45364285 54.87287903 C32.46061213 58.24961256 32.45279653 61.62618608 32.44038582 65.00289917 C32.43588345 66.61676418 32.43552387 68.23064643 32.43945122 69.84451294 C32.44237581 72.10372879 32.42579843 74.36199785 32.40405273 76.62109375 C32.39864975 77.9042749 32.39324677 79.18745605 32.38768005 80.50952148 C31.83207158 85.511944 30.2714127 88.79550375 26.625 92.25 C17.58721856 98.27518763 12.70425393 96 0 96 C0 64.32 0 32.64 0 0 Z " fill="#FEFEFE" transform="translate(709,399)"/>
<path d="M0 0 C0 31.68 0 63.36 0 96 C-21 96 -21 96 -27 92 C-31.10816489 86.55945731 -32.12412062 82.88321082 -32.17700195 76.14526367 C-32.18685875 75.10567757 -32.18685875 75.10567757 -32.19691467 74.04508972 C-32.21661645 71.75271492 -32.22830314 69.46040552 -32.23828125 67.16796875 C-32.24235678 66.38386438 -32.2464323 65.59976002 -32.25063133 64.79189491 C-32.27147861 60.64178354 -32.2857862 56.49170511 -32.29516602 52.34155273 C-32.30622875 48.06088542 -32.34063044 43.78073817 -32.38033772 39.50025463 C-32.40651425 36.20334422 -32.41485873 32.90655757 -32.41844749 29.60955238 C-32.42331067 28.03192952 -32.43491709 26.45431208 -32.45348549 24.876791 C-32.47790087 22.66508416 -32.47690845 20.45472098 -32.4699707 18.24291992 C-32.47583694 16.98621994 -32.48170319 15.72951996 -32.48774719 14.43473816 C-31.74223869 9.18483299 -29.28655211 6.13339114 -25.375 2.6875 C-16.8420116 -3.37541281 -16.23371745 0 0 0 Z " fill="#FEFEFE" transform="translate(314,399)"/>
</svg>
